<?xml version="1.0" standalone="no"?>
<!DOCTYPE svg PUBLIC "-//W3C//DTD SVG 20010904//EN"
 "http://www.w3.org/TR/2001/REC-SVG-20010904/DTD/svg10.dtd">
<svg version="1.0" xmlns="http://www.w3.org/2000/svg"
 width="400.000000pt" height="400.000000pt" viewBox="0 0 400.000000 400.000000"
 preserveAspectRatio="xMidYMid meet">
<metadata>
Created by potrace 1.14, written by Peter Selinger 2001-2017
</metadata>
<g transform="translate(0.000000,400.000000) scale(0.100000,-0.100000)"
fill="#000000" stroke="none">
<path d="M1257 3628 c-169 -171 -223 -519 -136 -888 l20 -84 -109 -111 c-165
-168 -261 -291 -325 -420 -57 -113 -72 -182 -71 -330 0 -114 4 -140 28 -212
68 -209 262 -394 466 -449 58 -15 225 -22 295 -12 18 3 23 -13 57 -177 51
-252 48 -350 -12 -434 -77 -106 -262 -142 -354 -70 -34 27 -33 39 4 39 136 0
202 154 121 282 -74 116 -223 115 -302 -2 -117 -174 -6 -377 230 -420 161 -29
325 50 393 188 26 54 36 182 20 270 l-9 52 166 87 c453 236 667 379 871 583
193 192 312 391 356 594 21 95 21 264 0 345 -58 226 -258 426 -486 487 -71 18
-239 24 -328 10 -186 -27 -388 -151 -469 -287 -56 -93 -78 -229 -53 -321 19
-68 70 -129 140 -167 62 -34 70 -36 160 -36 78 0 102 4 135 22 84 45 135 123
135 208 0 94 -63 174 -158 201 -46 14 -64 14 -111 4 -31 -6 -74 -10 -96 -8
-53 4 -66 36 -41 101 42 110 154 185 313 207 340 49 503 -123 506 -535 1 -147
-10 -215 -59 -365 -40 -125 -103 -251 -186 -372 -101 -148 -214 -259 -448
-440 -90 -69 -352 -250 -356 -245 -4 4 -54 230 -52 231 2 1 25 12 51 25 167
84 247 220 247 420 0 162 -48 280 -156 380 -80 75 -145 101 -252 101 l-78 0
-32 148 c-18 82 -32 154 -32 161 0 6 33 50 74 97 146 169 222 366 233 599 11
241 -45 451 -150 563 -25 25 -39 32 -70 32 -33 0 -45 -7 -90 -52z m183 -238
c26 -14 43 -73 42 -151 -1 -137 -96 -341 -216 -463 l-69 -71 -14 45 c-64 200
23 571 149 633 38 19 81 22 108 7z m-210 -1198 c12 -73 20 -134 18 -136 -1 -1
-24 -14 -49 -29 -63 -36 -136 -119 -172 -197 -24 -50 -32 -82 -35 -146 -6
-115 14 -172 87 -244 55 -55 155 -115 173 -104 5 4 -15 28 -45 55 -68 61 -97
119 -97 196 0 70 24 127 74 176 46 47 115 83 121 65 18 -57 125 -622 118 -628
-16 -14 -102 -30 -165 -30 -185 0 -363 111 -445 278 -34 67 -38 84 -41 171 -6
146 27 254 124 402 57 88 289 328 303 314 5 -6 19 -70 31 -143z m288 -384
c105 -50 151 -130 159 -274 6 -106 -9 -168 -58 -227 -30 -36 -115 -94 -125
-85 -4 4 -124 607 -124 622 0 13 95 -10 148 -36z"/>
<path d="M3174 2750 c-29 -11 -74 -67 -75 -93 -6 -88 16 -142 66 -163 104 -43
215 25 215 132 0 45 -32 99 -70 119 -31 16 -102 19 -136 5z"/>
<path d="M3185 2176 c-81 -36 -113 -141 -66 -221 22 -39 55 -55 114 -55 61 0
103 24 128 72 40 78 13 159 -67 198 -47 23 -68 24 -109 6z"/>
</g>
</svg>
