<?xml version="1.0" encoding="UTF-8" standalone="no"?>
<!-- Created with Inkscape (http://www.inkscape.org/) -->

<svg
   width="52.916656mm"
   height="52.916664mm"
   viewBox="0 0 52.916656 52.916664"
   version="1.1"
   id="svg5"
   xmlns:inkscape="http://www.inkscape.org/namespaces/inkscape"
   xmlns:sodipodi="http://sodipodi.sourceforge.net/DTD/sodipodi-0.dtd"
   xmlns="http://www.w3.org/2000/svg"
   xmlns:svg="http://www.w3.org/2000/svg">
  <sodipodi:namedview
     id="namedview7"
     pagecolor="#ffffff"
     bordercolor="#000000"
     borderopacity="0.25"
     inkscape:showpageshadow="2"
     inkscape:pageopacity="0.0"
     inkscape:pagecheckerboard="0"
     inkscape:deskcolor="#d1d1d1"
     inkscape:document-units="mm"
     showgrid="false" />
  <defs
     id="defs2" />
  <rect
     style="fill:none;fill-opacity:1;stroke:none;stroke-width:0.210444;stroke-opacity:1"
     id="rect681-8"
     width="52.916668"
     height="52.916668"
     x="-1.8287831e-06"
     y="3.7679004e-07" />
  <g
     id="g1590"
     transform="matrix(0.61519471,0,0,0.61519471,-19.374898,-120.67169)">
    <path
       style="fill:#ff7f2a;stroke:#000000;stroke-width:0.336668;stroke-opacity:0"
       d="m 67.249396,232.91483 c 0.377163,-1.2572 0.754326,-2.51442 1.13149,-3.77163 0,-0.6286 -0.136365,-1.27218 0,-1.88582 0.121964,-0.54884 0.545514,-0.98662 0.754323,-1.50865 0.196076,-0.49017 0.128544,-4.27733 0.377163,-4.52595 0.08891,-0.0889 0.32094,0.11248 0.377164,0 0.112447,-0.22489 -0.07952,-0.51579 0,-0.75433 0.05622,-0.16867 0.32094,-0.20849 0.377163,-0.37716 0.182102,-0.5463 0.110016,-1.35153 0.377164,-1.88582 0.187087,-0.37417 0.624103,-0.74082 0.754326,-1.13149 0.07952,-0.23853 -0.07952,-0.51578 0,-0.75432 0.247513,-0.74255 1.145947,-1.53757 1.508654,-2.26298 0.606826,-1.21365 2.285824,-4.33543 2.64014,-5.28029 0.176573,-0.47087 -0.224898,-1.05885 0,-1.50865 0.373622,-0.74723 1.685069,-1.83715 1.885817,-2.64014 0.09148,-0.36591 -0.119267,-0.77368 0,-1.13149 0.03975,-0.11923 0.251441,0 0.37716,0 0,-0.25145 -0.06097,-0.51039 0,-0.75432 0.09162,-0.36647 0.570769,-1.61049 0.754327,-1.88582 0.197248,-0.29587 0.622262,-0.42417 0.754327,-0.75433 0.248351,-0.62087 -0.09928,-2.26298 1.13149,-2.26298 0.125718,0 0,0.25145 0,0.37717 0,0.50288 0,1.00577 0,1.50865 0,1.19127 -0.231998,2.61164 0,3.77163 0.183835,0.91917 0.377163,1.35104 0.377163,2.26298 0,0.6286 -0.15246,1.27598 0,1.88582 0.04312,0.17248 0.32094,0.20849 0.377164,0.37716 0.454204,1.36262 -0.395212,3.14271 0,4.52595 0.124522,0.43585 0.644384,0.69173 0.754323,1.13149 0.152462,0.60985 -0.06254,1.26034 0,1.88582 0.374017,3.74014 0.224754,0.36943 0.754327,3.01731 0.162823,0.8141 -0.261437,1.85583 0,2.64014 0.279479,0.83843 0.171112,1.43877 0.377163,2.26297 0.06818,0.27273 0.251445,0.50289 0.377165,0.75434 0.125718,0.50287 0.291945,0.99734 0.377162,1.50864 0.06201,0.37204 -0.16867,0.79415 0,1.1315 0.187087,0.37416 0.624104,0.74081 0.754327,1.13149 0.328613,0.98583 0.120679,1.99138 0.377163,3.01729 -0.227328,0.68265 0.610981,0.70147 0.754327,1.1315 0.121125,0.36338 -0.280973,1.98201 0,2.26298 0.290438,0.29043 3.024133,-4.66306 3.394467,-5.28029 1.668922,-2.78153 3.871215,-5.47944 5.280284,-8.29759 0.0496,-0.0992 1.470742,-1.85738 1.508651,-1.88582 0.318051,-0.23853 0.81344,-0.13862 1.131491,-0.37715 0.33281,-0.24962 1.182973,-1.56014 1.508653,-1.88582 0.281118,-0.28112 0.813436,-0.13862 1.131487,-0.37716 0.284475,-0.21336 0.436279,-0.5953 0.754329,-0.75433 0.2249,-0.11248 0.52943,0.11249 0.75433,0 0.31804,-0.15903 0.4494,-0.57138 0.75432,-0.75432 0.34091,-0.20455 0.7759,-0.19937 1.13149,-0.37717 3.55753,-1.77877 -0.0826,-0.0706 1.50865,-1.13148 0.82511,-0.55008 0.80157,-0.14147 1.50865,-0.37717 0.53339,-0.1778 0.95733,-0.64406 1.50866,-0.75432 0.6164,-0.1233 1.27598,0.15245 1.88581,0 0.3857,-0.0965 0.85037,-0.65829 1.13149,-0.37717 0.31192,0.31192 0,2.4662 0,3.01731 0,2.34776 0.23271,4.83904 0,7.16609 -0.1483,1.483 -1.37783,2.79418 -1.88581,4.1488 -1.09909,2.93089 -2.41673,5.32232 -4.1488,7.92042 -0.15594,0.23391 -0.17838,0.55555 -0.37716,0.75433 -0.0889,0.089 -0.28826,-0.0889 -0.37716,0 -0.973,0.97299 -1.08345,1.75549 -2.26298,2.64015 -1.0681,0.80107 -2.650963,0.38076 -3.771633,0.75432 -0.337346,0.11248 -0.436275,0.5953 -0.754326,0.75432 -1.058141,0.94431 -2.597637,0.5445 -3.771631,1.1315 -0.318052,0.15901 -0.445585,0.57789 -0.754327,0.75432 -1.42521,0.8144 -3.269526,1.00421 -3.017303,1.50865 0.125718,0.25145 0.502882,0.25145 0.754327,0.37717 0.754323,0.37715 1.500798,0.77045 2.262976,1.13149 1.626774,0.77057 3.293106,1.45797 4.903121,2.26297 4.553566,2.27679 9.245766,4.56683 13.577876,7.1661 0.82998,1.55033 2.61053,0.81199 3.77163,1.50866 0.24106,0.14462 0.25144,0.50288 0.37716,0.75432 0.50288,0.25145 0.98663,0.54552 1.50865,0.75432 0.36913,0.14765 1.46228,0.15664 1.13149,0.37717 -0.8885,0.59233 -2.48187,0.30111 -3.39447,0.37716 -2.3936,0.19947 -4.7679,0.6211 -7.16609,0.75432 -5.84858,0.32494 -11.867077,0 -17.72667,0 -1.349148,0 -9.289345,-0.13972 -9.429079,0 -0.400046,0.40006 1.524662,3.49873 1.885813,4.1488 2.606932,4.69249 2.640144,5.95856 2.640144,11.3149 0,1.29471 0.934253,6.32181 -0.754327,7.1661 -0.56224,0.28111 -1.257209,0 -1.885817,0 -1.257209,0 -2.515987,0.0627 -3.77163,0 -5.570237,-0.27851 -7.062906,-1.01288 -9.806238,-5.28028 -0.878046,-1.36585 -1.740468,-2.95843 -2.262981,-4.52596 -0.493405,-1.48022 0.243981,-4.08948 0.754327,-5.28029 0.110741,-0.25839 0.754327,-0.0961 0.754327,-0.37716 0,-0.12572 -0.251441,0 -0.377163,0 -0.88005,0 -1.760095,0 -2.640141,0 -1.885817,0 -3.771634,0 -5.657447,0 -7.543262,0 -15.086525,0 -22.629788,0 -1.25721,0 -2.514421,0 -3.771631,0 -0.125718,0 -0.407655,0.12202 -0.377163,0 0.65085,-2.60341 0.522782,-0.61986 1.508653,-2.26298 0.204545,-0.34091 0.09604,-0.85036 0.377163,-1.13149 0.641054,-0.64106 1.508652,-1.00577 2.262978,-1.50865 0.754327,-0.50288 1.452103,-1.10321 2.262979,-1.50865 0.960759,-0.48038 2.071537,-0.62223 3.017305,-1.13149 0.708786,-0.38166 1.230754,-1.04075 1.885816,-1.50866 1.106581,-0.79042 2.241291,-1.54224 3.394468,-2.26297 1.626148,-1.01634 3.696794,-1.78604 4.903119,-3.39447 0.488263,-0.65103 -2.405931,-2.23791 -4.148794,-3.77163 -7.117185,-6.26313 -4.878867,-3.711 -7.166099,-9.42908 -0.481009,-1.20253 -1.548462,-1.985 -1.131488,-2.26298 2.962277,-1.97485 3.627567,-1.13148 7.920426,-1.13148 2.011536,0 4.023071,0 6.034608,0 8.18278,0 3.526805,0.15246 13.955036,-0.75434 z"
       id="path1438-4" />
    <path
       style="fill:#ff0000;stroke:#000000;stroke-width:0.264583;stroke-opacity:0"
       d="m 68.766467,236.23652 c 0.296407,-0.98802 0.592814,-1.97605 0.889222,-2.96407 0,-0.49401 -0.107167,-0.99979 0,-1.48204 0.09585,-0.43133 0.428712,-0.77537 0.592812,-1.18563 0.154093,-0.38522 0.101021,-3.36149 0.296407,-3.55688 0.06987,-0.0699 0.252222,0.0884 0.296408,0 0.08837,-0.17674 -0.06249,-0.40535 0,-0.59282 0.04418,-0.13255 0.252222,-0.16385 0.296407,-0.2964 0.143111,-0.42933 0.08646,-1.06215 0.296408,-1.48204 0.147029,-0.29406 0.490474,-0.5822 0.592814,-0.88922 0.06249,-0.18746 -0.06249,-0.40535 0,-0.59281 0.194517,-0.58356 0.900584,-1.20836 1.18563,-1.77845 0.476896,-0.95379 1.796397,-3.40715 2.074849,-4.1497 0.138766,-0.37005 -0.176744,-0.83214 0,-1.18563 0.293624,-0.58724 1.324272,-1.44379 1.482037,-2.07485 0.07189,-0.28756 -0.09373,-0.60802 0,-0.88922 0.03124,-0.0937 0.197604,0 0.296405,0 0,-0.19761 -0.04792,-0.40111 0,-0.59281 0.072,-0.288 0.448559,-1.26566 0.592815,-1.48204 0.155014,-0.23252 0.489027,-0.33335 0.592815,-0.59282 0.195175,-0.48793 -0.07802,-1.77844 0.889222,-1.77844 0.0988,0 0,0.19761 0,0.29641 0,0.39521 0,0.79042 0,1.18563 0,0.9362 -0.182324,2.05245 0,2.96407 0.144473,0.72236 0.296407,1.06176 0.296407,1.77844 0,0.49401 -0.119816,1.00278 0,1.48204 0.03389,0.13555 0.252222,0.16385 0.296408,0.29641 0.356952,1.07086 -0.310592,2.46981 0,3.55688 0.09786,0.34253 0.506412,0.54362 0.592812,0.88922 0.119817,0.47927 -0.04915,0.99048 0,1.48204 0.293934,2.93932 0.176631,0.29033 0.592815,2.37126 0.12796,0.63979 -0.20546,1.45847 0,2.07485 0.219638,0.65891 0.134474,1.13071 0.296407,1.77844 0.05358,0.21433 0.197607,0.39521 0.296408,0.59282 0.0988,0.3952 0.229436,0.7838 0.296407,1.18562 0.04873,0.29238 -0.132556,0.62411 0,0.88923 0.147029,0.29405 0.490474,0.58219 0.592815,0.88922 0.258252,0.77475 0.09484,1.565 0.296407,2.37125 -0.178654,0.53648 0.480161,0.55127 0.592815,0.88923 0.09519,0.28557 -0.220813,1.55763 0,1.77844 0.228251,0.22825 2.376623,-3.66463 2.667664,-4.1497 1.311582,-2.18597 3.042333,-4.30622 4.149701,-6.52096 0.03898,-0.078 1.155835,-1.45969 1.185627,-1.48204 0.249952,-0.18746 0.639271,-0.10894 0.889223,-0.2964 0.261551,-0.19617 0.929682,-1.22609 1.185629,-1.48204 0.220927,-0.22093 0.639268,-0.10894 0.88922,-0.2964 0.223565,-0.16768 0.342863,-0.46784 0.592815,-0.59282 0.176744,-0.0884 0.416073,0.0884 0.592815,0 0.249951,-0.12498 0.353184,-0.44904 0.592814,-0.59281 0.267915,-0.16075 0.609767,-0.15668 0.889223,-0.29641 2.795815,-1.39791 -0.0649,-0.0555 1.185627,-0.88922 0.64844,-0.4323 0.629943,-0.11118 1.185629,-0.29641 0.419182,-0.13973 0.752354,-0.50616 1.185634,-0.59281 0.48441,-0.0969 1.00277,0.11981 1.48203,0 0.30311,-0.0758 0.66829,-0.51734 0.88922,-0.29641 0.24514,0.24513 0,1.93815 0,2.37126 0,1.84507 0.18288,3.80293 0,5.63173 -0.11654,1.16547 -1.08282,2.19591 -1.48203,3.26048 -0.86376,2.30335 -1.899274,4.18274 -3.260483,6.22455 -0.12255,0.18383 -0.140187,0.4366 -0.296408,0.59282 -0.06986,0.0699 -0.226541,-0.0699 -0.296407,0 -0.764662,0.76466 -0.851461,1.37961 -1.778442,2.07485 -0.839404,0.62955 -2.083353,0.29924 -2.964072,0.59281 -0.265115,0.0884 -0.342862,0.46784 -0.592814,0.59281 -0.831578,0.74212 -2.041446,0.42792 -2.964072,0.88923 -0.249952,0.12497 -0.350179,0.45416 -0.592815,0.59281 -1.120052,0.64003 -2.569474,0.7892 -2.371256,1.18563 0.0988,0.19761 0.395208,0.19761 0.592815,0.29641 0.592812,0.2964 1.179456,0.60549 1.778441,0.88922 1.278459,0.60558 2.588006,1.1458 3.853294,1.77844 3.578585,1.7893 7.266117,3.58901 10.670659,5.63174 0.65227,1.21838 2.05158,0.63813 2.96407,1.18563 0.18945,0.11366 0.19761,0.39521 0.29641,0.59281 0.39521,0.19761 0.77537,0.42872 1.18563,0.59281 0.29009,0.11604 1.14918,0.1231 0.88922,0.29641 -0.69826,0.46551 -1.95047,0.23664 -2.66767,0.29641 -1.88109,0.15676 -3.74702,0.48811 -5.63173,0.59281 -4.596317,0.25536 -9.326167,0 -13.931139,0 -1.060276,0 -7.300365,-0.10981 -7.41018,0 -0.314391,0.3144 1.19821,2.7496 1.482034,3.26048 2.048751,3.68776 2.074852,4.68275 2.074852,8.89222 0,1.0175 0.734216,4.96822 -0.592815,5.63174 -0.441857,0.22092 -0.988023,0 -1.482037,0 -0.988023,0 -1.977279,0.0493 -2.964071,0 -4.377571,-0.21888 -5.550639,-0.79601 -7.706585,-4.1497 -0.690044,-1.0734 -1.367809,-2.32499 -1.778445,-3.55689 -0.38776,-1.16328 0.191741,-3.21386 0.592815,-4.1497 0.08703,-0.20307 0.592815,-0.0755 0.592815,-0.29641 0,-0.0988 -0.197604,0 -0.296407,0 -0.691619,0 -1.383234,0 -2.07485,0 -1.482037,0 -2.964074,0 -4.446108,0 -5.928143,0 -11.856288,0 -17.784432,0 -0.988024,0 -1.976048,0 -2.964072,0 -0.0988,0 -0.32037,0.0959 -0.296407,0 0.511494,-2.04598 0.410847,-0.48714 1.185629,-1.77844 0.160749,-0.26792 0.07548,-0.66829 0.296407,-0.88922 0.503796,-0.5038 1.185629,-0.79042 1.778443,-1.18563 0.592815,-0.39521 1.141187,-0.867 1.778443,-1.18563 0.755047,-0.37752 1.627992,-0.489 2.371258,-0.88922 0.557025,-0.29994 0.967232,-0.81791 1.482036,-1.18563 0.869647,-0.62118 1.761399,-1.21203 2.667665,-1.77844 1.277967,-0.79873 2.905258,-1.40362 3.853292,-2.66767 0.383719,-0.51163 -1.890787,-1.75874 -3.260479,-2.96407 -5.593295,-4.9221 -3.834233,-2.91642 -5.631736,-7.41018 -0.378018,-0.94505 -1.216915,-1.55998 -0.889221,-1.77844 2.328012,-1.55201 2.850854,-0.88922 6.224552,-0.88922 1.580838,0 3.161675,0 4.742513,0 6.430732,0 2.771667,0.11982 10.967067,-0.59282 z"
       id="path1438" />
  </g>
</svg>
